<?xml version="1.0" encoding="UTF-8" standalone="no"?>
<svg
   xmlns:dc="http://purl.org/dc/elements/1.1/"
   xmlns:cc="http://creativecommons.org/ns#"
   xmlns:rdf="http://www.w3.org/1999/02/22-rdf-syntax-ns#"
   xmlns:svg="http://www.w3.org/2000/svg"
   xmlns="http://www.w3.org/2000/svg"
   xmlns:sodipodi="http://sodipodi.sourceforge.net/DTD/sodipodi-0.dtd"
   xmlns:inkscape="http://www.inkscape.org/namespaces/inkscape"
   version="1.1"
   id="svg2"
   xml:space="preserve"
   width="377.94666"
   height="92.773331"
   viewBox="0 0 377.94666 92.773331"
   sodipodi:docname="1 Blå.eps"><metadata
     id="metadata8"><rdf:RDF><cc:Work
         rdf:about=""><dc:format>image/svg+xml</dc:format><dc:type
           rdf:resource="http://purl.org/dc/dcmitype/StillImage" /></cc:Work></rdf:RDF></metadata><defs
     id="defs6" /><sodipodi:namedview
     pagecolor="#ffffff"
     bordercolor="#666666"
     borderopacity="1"
     objecttolerance="10"
     gridtolerance="10"
     guidetolerance="10"
     inkscape:pageopacity="0"
     inkscape:pageshadow="2"
     inkscape:window-width="640"
     inkscape:window-height="480"
     id="namedview4" /><g
     id="g10"
     inkscape:groupmode="layer"
     inkscape:label="ink_ext_XXXXXX"
     transform="matrix(1.3333333,0,0,-1.3333333,0,92.773333)"><g
       id="g12"
       transform="scale(0.1)"><path
         d="m 347.801,678.023 c -182.5,0 -330.4729,-147.98 -330.4729,-330.535 0,-182.547 147.9729,-330.5661 330.4729,-330.5661 182.597,0 330.594,148.0191 330.594,330.5661 0,182.555 -147.997,330.535 -330.594,330.535"
         style="fill:#ffffff;fill-opacity:1;fill-rule:nonzero;stroke:none"
         id="path14" /><path
         d="m 371.316,632.879 c -1.132,-0.102 -2.039,-0.359 -2.355,-0.891 -1.582,-2.39 -1.582,-13.515 -1.582,-13.515 l -0.043,-117.184 v -19.691 c 0.082,-0.75 0.305,-1.266 0.574,-1.485 0.223,-0.175 0.742,-0.175 1.367,0 l 5.606,4.348 2.215,1.742 c 124.617,105.133 352.468,-96.383 7.5,-357.648 l -1.164,-0.715 0.14,0.051 c 0,0 -13,-9.309 -14.613,-11.692 -1.582,-2.344 -1.582,-34.7459 -1.582,-34.7459 V 80.457 c 0,0 0,-14.4414 1.582,-16.7656 0.266,-0.3906 0.906,-0.625 1.848,-0.832 136.925,11.9062 262.847,144.9996 262.847,285.0156 0,150.508 -125.605,272.906 -262.34,285.004"
         style="fill:#d91920;fill-opacity:1;fill-rule:nonzero;stroke:none"
         id="path16" /><path
         d="m 311.863,127.891 0.129,-0.051 -1.117,0.715 C -34.0781,389.82 193.773,591.336 318.32,486.203 l 2.192,-1.742 5.648,-4.348 c 0.684,-0.175 1.121,-0.175 1.461,0 0.18,0.219 0.449,0.735 0.606,1.485 v 19.691 l -0.047,117.184 c 0,0 0,11.125 -1.602,13.515 -0.418,0.516 -1.219,0.789 -2.406,0.852 C 187.402,620.781 61.8633,498.383 61.8633,347.875 61.8633,207.859 187.703,74.7656 324.676,62.8594 c 0.851,0.207 1.519,0.4414 1.902,0.832 1.602,2.3242 1.602,16.7656 1.602,16.7656 v 0.9688 c 0,0 0,32.4292 -1.602,34.7732 -1.617,2.383 -14.715,11.692 -14.715,11.692"
         style="fill:#d91920;fill-opacity:1;fill-rule:nonzero;stroke:none"
         id="path18" /><path
         d="m 347.801,410.445 v 0 c -97.227,160.571 -320.6369,-23.019 0,-252.547 v 0 c 320.652,229.528 97.242,413.118 0,252.547"
         style="fill:#d91920;fill-opacity:1;fill-rule:nonzero;stroke:none"
         id="path20" /><path
         d="m 347.969,36.9609 c -158.781,0 -310.9338,152.1411 -310.9338,310.9141 0,169.523 152.1528,310.977 310.9338,310.977 158.867,0 310.98,-141.454 310.98,-310.977 0,-158.773 -152.113,-310.9141 -310.98,-310.9141 z M 347.801,695.816 C 155.68,695.816 0,540.063 0,347.91 0,155.75 155.68,0 347.801,0 c 192.176,0 347.914,155.75 347.914,347.91 0,192.153 -155.738,347.906 -347.914,347.906"
         style="fill:#d91920;fill-opacity:1;fill-rule:nonzero;stroke:none"
         id="path22" /><path
         d="M 962.965,189.063 H 858.012 V 141.68 h 93.086 V 113.895 H 858.012 V 43.1836 H 825.574 V 216.844 h 137.391 v -27.781"
         style="fill:#051c2e;fill-opacity:1;fill-rule:nonzero;stroke:none"
         id="path24" /><path
         d="m 1094.07,191.797 c -36.65,0 -62.23,-27.551 -62.23,-61.535 0,-33.9847 26.11,-62.0198 62.76,-62.0198 36.65,0 62.24,27.5391 62.24,61.5308 0,33.985 -26.11,62.024 -62.77,62.024 z m 0,-151.5939 c -56.69,0 -96.242,40.4492 -96.242,89.5699 0,49.114 40.072,90.051 96.772,90.051 56.69,0 96.25,-40.441 96.25,-89.562 0,-49.1214 -40.08,-90.0589 -96.78,-90.0589"
         style="fill:#051c2e;fill-opacity:1;fill-rule:nonzero;stroke:none"
         id="path26" /><path
         d="m 1330.71,189.063 h -47.2 v -58.301 h 47.46 c 23.2,0 37.98,11.406 37.98,29.277 0,19.102 -14.25,29.024 -38.24,29.024 z m 38.76,-145.8794 -45.36,60.5354 h -40.6 V 43.1836 h -32.44 V 216.844 h 82.27 c 42.46,0 68.56,-21.082 68.56,-55.067 0,-28.781 -18.19,-46.144 -44.03,-52.851 l 49.83,-65.7424 h -38.23"
         style="fill:#051c2e;fill-opacity:1;fill-rule:nonzero;stroke:none"
         id="path28" /><path
         d="m 1606.93,189.559 h -104.42 v -45.157 h 92.56 v -27.285 h -92.56 V 70.4766 h 105.74 V 43.1836 H 1470.08 V 216.844 h 136.85 v -27.285"
         style="fill:#051c2e;fill-opacity:1;fill-rule:nonzero;stroke:none"
         id="path30" /><path
         d="m 1801.08,216.844 h 31.91 V 43.1836 h -27.16 L 1704.04,166.738 V 43.1836 h -31.91 V 216.844 h 30.06 L 1801.08,96.7773 V 216.844"
         style="fill:#051c2e;fill-opacity:1;fill-rule:nonzero;stroke:none"
         id="path32" /><path
         d="M 1938.63,216.844 V 43.1836 H 1906.2 V 216.844 h 32.43"
         style="fill:#051c2e;fill-opacity:1;fill-rule:nonzero;stroke:none"
         id="path34" /><path
         d="m 2140.79,216.844 h 31.91 V 43.1836 h -27.16 L 2043.75,166.738 V 43.1836 h -31.9 V 216.844 h 30.05 L 2140.79,96.7773 V 216.844"
         style="fill:#051c2e;fill-opacity:1;fill-rule:nonzero;stroke:none"
         id="path36" /><path
         d="m 2330.12,40.2031 c -57.75,0 -95.72,38.711 -95.72,89.5699 0,48.868 39.55,90.051 95.19,90.051 32.18,0 51.95,-8.437 70.94,-23.566 l -20.57,-23.074 c -14.24,11.414 -28.21,18.613 -51.69,18.613 -34.01,0 -59.85,-27.793 -59.85,-61.535 0,-35.9768 25.05,-62.2659 62.76,-62.2659 17.4,0 33.22,5.207 44.56,13.1445 v 32.5004 h -47.21 v 26.543 h 78.59 V 67.2461 c -18.19,-14.6289 -44.3,-27.043 -77,-27.043"
         style="fill:#051c2e;fill-opacity:1;fill-rule:nonzero;stroke:none"
         id="path38" /><path
         d="m 2610.07,189.559 h -104.43 v -45.157 h 92.56 v -27.285 h -92.56 V 70.4766 h 105.75 V 43.1836 H 2473.21 V 216.844 h 136.86 v -27.285"
         style="fill:#051c2e;fill-opacity:1;fill-rule:nonzero;stroke:none"
         id="path40" /><path
         d="m 2802.73,216.844 h 31.92 V 43.1836 h -27.17 L 2705.7,166.738 V 43.1836 h -31.91 V 216.844 h 30.06 L 2802.73,96.7773 V 216.844"
         style="fill:#051c2e;fill-opacity:1;fill-rule:nonzero;stroke:none"
         id="path42" /><path
         d="M 1066.29,516.055 H 905.105 V 653.793 H 825.738 V 305.711 h 79.367 V 445.438 H 1066.29 V 305.711 h 79.38 v 348.082 h -79.38 V 516.055"
         style="fill:#051c2e;fill-opacity:1;fill-rule:nonzero;stroke:none"
         id="path44" /><path
         d="m 1598.78,446.934 h 159.72 v 68.125 h -159.72 v 70.609 h 198.87 v 68.125 H 1519.93 V 305.711 h 279.15 v 68.121 h -200.3 v 73.102"
         style="fill:#051c2e;fill-opacity:1;fill-rule:nonzero;stroke:none"
         id="path46" /><path
         d="m 2207.62,583.184 h 112.74 V 305.711 h 82.34 v 277.473 h 109.78 v 70.609 h -304.86 v -70.609"
         style="fill:#051c2e;fill-opacity:1;fill-rule:nonzero;stroke:none"
         id="path48" /><path
         d="m 2634.35,373.832 v 73.102 h 159.71 v 68.125 h -159.71 v 70.609 h 198.85 v 68.125 H 2555.49 V 305.711 h 279.16 v 68.121 h -200.3"
         style="fill:#051c2e;fill-opacity:1;fill-rule:nonzero;stroke:none"
         id="path50" /><path
         d="m 1253.88,653.793 v -70.582 h 102.24 v -153.68 c 0,-40.277 -21.52,-62.101 -51.41,-62.101 -25.26,0 -46.84,12.925 -67.46,34.808 l -49.99,-49.289 c 24.74,-28.34 63.33,-52.207 119.51,-52.207 76.28,0 130.78,40.77 130.78,125.301 v 227.75 h -183.67"
         style="fill:#051c2e;fill-opacity:1;fill-rule:nonzero;stroke:none"
         id="path52" /><path
         d="m 1953.82,585.23 h 89.47 c 39.69,0 64.43,-16.925 64.43,-51.242 v -0.992 c 0,-29.84 -23.19,-49.766 -62.88,-49.766 h -91.02 z m 234.3,-50.742 v 0.989 c 0,71.113 -52.06,118.875 -138.12,118.875 H 1874.44 V 306.266 h 79.38 v 108.839 c 0,0 92.93,0.047 95.14,0.106 l 70.86,-109.5 h 90.59 l -86.01,126.148 c 38.54,18.5 63.72,52.469 63.72,102.629"
         style="fill:#051c2e;fill-opacity:1;fill-rule:nonzero;stroke:none"
         id="path54" /></g></g></svg>
