<?xml version="1.0" encoding="UTF-8"?>
<svg id="Lag_1" data-name="Lag 1" xmlns="http://www.w3.org/2000/svg" viewBox="0 0 1639.08 809.22">
  <defs>
    <style>
      .cls-1 {
        fill: #f74030;
      }
    </style>
  </defs>
  <g id="Logo">
    <g>
      <path class="cls-1" d="M381.65,247.42c-61.42,0-88.14,56-88.14,56-5.45-10.38-12.52-19.83-20.94-27.99-17.77-17.93-41.96-28-67.2-27.99-61.45,0-112.31,50.09-101.14,125.06,11.17,74.96,86.18,136.75,189.28,203.94,51.52-33.55,96.05-65.82,129.13-99.03,33.03-33.32,54.55-67.43,60.18-104.96,11.14-74.94-39.72-125.03-101.17-125.03"/>
      <rect class="cls-1" x="110.33" y="112.55" width="366.39" height="36.55"/>
      <rect class="cls-1" x="110.33" y="662.57" width="366.39" height="36.55"/>
      <g>
        <path class="cls-1" d="M1490.46,452.96c-6.13,0-11.76,1.21-16.89,3.63s-9.35,5.75-12.65,10v-12.21h-24.77v98.01h24.77v-54.13c0-7.78,1.97-13.77,5.93-17.96,3.95-4.19,9.35-6.28,16.19-6.28s12.03,2.1,15.92,6.28c3.89,4.19,5.84,10.17,5.84,17.96v54.13h24.77v-57.5c0-13.21-3.6-23.5-10.79-30.87-7.19-7.37-16.63-11.06-28.3-11.06M1347.13,494.18c.94-6.6,3.51-11.76,7.7-15.48s9.35-5.57,15.48-5.57c6.49,0,11.97,1.92,16.45,5.75s6.78,8.93,6.9,15.3h-46.53,0ZM1419.31,501.26c0-9.55-2.03-18.01-6.1-25.39-4.07-7.37-9.79-13.06-17.16-17.07s-15.72-6.01-25.03-6.01-18.22,2.06-25.65,6.19-13.21,10.03-17.34,17.69c-4.13,7.67-6.19,16.57-6.19,26.71s2.09,18.87,6.28,26.54c4.19,7.67,10.02,13.59,17.51,17.78s15.95,6.28,25.39,6.28c11.68,0,21.52-3.04,29.54-9.11s13.45-13.83,16.28-23.26h-26.71c-3.89,7.9-10.44,11.85-19.64,11.85-6.37,0-11.74-2-16.1-6.01s-6.84-9.55-7.43-16.63h71.65c.47-2.83.71-6.01.71-9.55M1280.23,503.38c0,6.01-1.18,11.18-3.54,15.48-2.36,4.31-5.54,7.61-9.55,9.91s-8.31,3.45-12.91,3.45-8.7-1.18-12.65-3.54c-3.95-2.36-7.14-5.75-9.55-10.17-2.42-4.42-3.63-9.58-3.63-15.48s1.21-11,3.63-15.3,5.57-7.58,9.46-9.82,8.14-3.36,12.74-3.36,8.9,1.15,12.91,3.45,7.19,5.6,9.55,9.91c2.36,4.31,3.54,9.46,3.54,15.48M1247.85,452.78c-8.38,0-15.95,2.06-22.73,6.19s-12.15,10.03-16.1,17.69c-3.95,7.67-5.93,16.45-5.93,26.36s1.97,18.9,5.93,26.62c3.95,7.73,9.35,13.71,16.19,17.96s14.39,6.37,22.64,6.37c7.19,0,13.59-1.53,19.19-4.6,5.6-3.07,10-6.9,13.18-11.5v15.21c0,8.73-2.24,15.24-6.72,19.55-4.48,4.3-10.32,6.46-17.51,6.46-6.13,0-11.35-1.33-15.66-3.98-4.31-2.65-7.11-6.22-8.4-10.7h-24.59c1.18,11.2,6.22,20.05,15.13,26.54,8.9,6.48,20.31,9.73,34.23,9.73,10.38,0,19.22-2.1,26.54-6.28,7.31-4.19,12.8-9.85,16.45-16.98,3.65-7.14,5.48-15.24,5.48-24.32v-98.72h-24.94v13.98c-3.18-4.6-7.55-8.34-13.09-11.23-5.54-2.89-11.97-4.33-19.28-4.33M1147.99,452.96c-6.13,0-11.76,1.21-16.89,3.63s-9.35,5.75-12.65,10v-12.21h-24.77v98.01h24.77v-54.13c0-7.78,1.97-13.77,5.93-17.96,3.95-4.19,9.35-6.28,16.19-6.28s12.03,2.1,15.92,6.28c3.89,4.19,5.84,10.17,5.84,17.96v54.13h24.77v-57.5c0-13.21-3.6-23.5-10.79-30.87-7.2-7.37-16.63-11.06-28.31-11.06M1046.39,552.38h24.77v-98.01h-24.77v98.01ZM1058.95,442.7c4.36,0,7.99-1.38,10.88-4.16,2.89-2.77,4.33-6.22,4.33-10.35s-1.45-7.58-4.33-10.35c-2.89-2.77-6.52-4.16-10.88-4.16s-7.99,1.39-10.88,4.16c-2.89,2.77-4.33,6.22-4.33,10.35s1.44,7.58,4.33,10.35c2.89,2.77,6.52,4.16,10.88,4.16M986.01,452.96c-6.13,0-11.76,1.21-16.89,3.63s-9.35,5.75-12.65,10v-12.21h-24.77v98.01h24.77v-54.13c0-7.78,1.97-13.77,5.93-17.96,3.95-4.19,9.35-6.28,16.19-6.28s12.03,2.1,15.92,6.28c3.89,4.19,5.84,10.17,5.84,17.96v54.13h24.77v-57.5c0-13.21-3.6-23.5-10.79-30.87-7.2-7.37-16.63-11.06-28.31-11.06M842.68,494.18c.94-6.6,3.51-11.76,7.7-15.48s9.35-5.57,15.48-5.57c6.48,0,11.97,1.92,16.45,5.75,4.48,3.83,6.78,8.93,6.9,15.3h-46.53ZM914.86,501.26c0-9.55-2.03-18.01-6.1-25.39-4.07-7.37-9.79-13.06-17.16-17.07s-15.72-6.01-25.03-6.01-18.22,2.06-25.65,6.19c-7.43,4.13-13.21,10.03-17.34,17.69-4.13,7.67-6.19,16.57-6.19,26.71s2.09,18.87,6.28,26.54,10.02,13.59,17.51,17.78,15.95,6.28,25.39,6.28c11.68,0,21.52-3.04,29.54-9.11s13.45-13.83,16.28-23.26h-26.71c-3.89,7.9-10.44,11.85-19.64,11.85-6.37,0-11.74-2-16.1-6.01s-6.84-9.55-7.43-16.63h71.65c.47-2.83.71-6.01.71-9.55M779.38,469.59v-15.21h-24.77v98.01h24.77v-48.83c0-9.08,1.97-15.45,5.93-19.11,3.95-3.65,9.82-5.48,17.6-5.48h6.55v-26.01c-6.61,0-12.47,1.48-17.6,4.42-5.13,2.95-9.29,7.02-12.47,12.21M686.92,532.39c-7.08,0-12.94-2.5-17.6-7.52-4.66-5.01-6.99-12.18-6.99-21.49s2.39-16.48,7.16-21.49c4.78-5.01,10.7-7.52,17.78-7.52s13.06,2.51,17.96,7.52c4.89,5.01,7.34,12.18,7.34,21.49,0,6.25-1.18,11.56-3.54,15.92s-5.51,7.64-9.46,9.82-8.17,3.27-12.65,3.27M686.92,553.97c9.55,0,18.19-2.09,25.92-6.28,7.72-4.19,13.86-10.11,18.4-17.78,4.54-7.67,6.81-16.51,6.81-26.54s-2.21-18.87-6.63-26.54-10.47-13.59-18.13-17.78c-7.67-4.19-16.22-6.28-25.65-6.28s-17.99,2.1-25.65,6.28c-7.67,4.19-13.71,10.11-18.13,17.78-4.42,7.67-6.63,16.51-6.63,26.54s2.15,18.87,6.46,26.54c4.3,7.67,10.23,13.59,17.78,17.78,7.55,4.19,16.04,6.28,25.47,6.28M630.61,454.37h-17.16v-4.07c0-5.54,1.18-9.38,3.54-11.5s6.55-3.12,12.56-3.01v-20.88c-13.8-.35-24.12,2.3-30.96,7.96-6.84,5.66-10.26,14.51-10.26,26.54v4.95h-11.15v20.34h11.15v77.66h25.12v-77.66h17.16v-20.34h0Z"/>
        <path class="cls-1" d="M1024.49,323.59c.94-6.6,3.51-11.76,7.7-15.48,4.18-3.72,9.35-5.57,15.48-5.57,6.48,0,11.97,1.92,16.45,5.75s6.78,8.93,6.9,15.3h-46.53,0ZM1096.67,330.66c0-9.55-2.03-18.01-6.1-25.39-4.07-7.37-9.79-13.06-17.16-17.07s-15.72-6.01-25.03-6.01-18.22,2.06-25.65,6.19-13.21,10.03-17.34,17.69c-4.13,7.67-6.19,16.57-6.19,26.71s2.09,18.87,6.28,26.54c4.18,7.67,10.02,13.59,17.51,17.78,7.49,4.19,15.95,6.28,25.39,6.28,11.68,0,21.52-3.04,29.54-9.11s13.45-13.83,16.28-23.26h-26.71c-3.89,7.9-10.44,11.85-19.64,11.85-6.37,0-11.74-2-16.1-6.01s-6.84-9.55-7.43-16.63h71.65c.47-2.83.71-6.01.71-9.55M990.23,304.13v-20.34h-21.94v-24.24h-24.94v24.24h-11.68v20.34h11.68v47.23c0,20.29,10.44,30.43,31.31,30.43h15.57v-20.88h-11.5c-3.78,0-6.46-.74-8.05-2.21-1.59-1.47-2.39-3.86-2.39-7.16v-47.41h21.94ZM892.27,299v-15.21h-24.77v98.01h24.77v-48.83c0-9.08,1.97-15.45,5.93-19.11,3.95-3.65,9.82-5.48,17.6-5.48h6.55v-26.01c-6.61,0-12.47,1.48-17.6,4.42-5.13,2.95-9.29,7.02-12.47,12.21M778.49,323.59c.94-6.6,3.51-11.76,7.7-15.48s9.35-5.57,15.48-5.57c6.48,0,11.97,1.92,16.45,5.75,4.48,3.83,6.78,8.93,6.9,15.3h-46.53ZM850.66,330.66c0-9.55-2.03-18.01-6.1-25.39-4.07-7.37-9.79-13.06-17.16-17.07s-15.72-6.01-25.03-6.01-18.22,2.06-25.65,6.19c-7.43,4.13-13.21,10.03-17.34,17.69-4.13,7.67-6.19,16.57-6.19,26.71s2.09,18.87,6.28,26.54,10.02,13.59,17.51,17.78c7.49,4.19,15.95,6.28,25.39,6.28,11.68,0,21.52-3.04,29.54-9.11,8.02-6.07,13.45-13.83,16.28-23.26h-26.71c-3.89,7.9-10.44,11.85-19.64,11.85-6.37,0-11.74-2-16.1-6.01s-6.84-9.55-7.43-16.63h71.65c.47-2.83.71-6.01.71-9.55M736.68,283.78h-24.77v114.28c0,3.3-.77,5.69-2.3,7.16-1.53,1.47-4.19,2.21-7.96,2.21h-7.08v21.05h10.97c10.02,0,17.72-2.39,23.09-7.16,5.37-4.78,8.05-12.59,8.05-23.44v-114.11h0ZM724.48,272.11c4.36,0,7.96-1.38,10.79-4.16,2.83-2.77,4.25-6.22,4.25-10.35s-1.42-7.58-4.25-10.35c-2.83-2.77-6.43-4.16-10.79-4.16s-8.17,1.39-11.06,4.16-4.33,6.22-4.33,10.35,1.44,7.58,4.33,10.35c2.89,2.77,6.57,4.16,11.06,4.16M663.34,258.31v50.77h-52.9v-50.77h-24.77v123.48h24.77v-52.54h52.9v52.54h24.77v-123.48h-24.77Z"/>
      </g>
    </g>
  </g>
</svg>