<?xml version="1.0" encoding="UTF-8"?>
<svg id="Layer_1" data-name="Layer 1" xmlns="http://www.w3.org/2000/svg" viewBox="0 0 283.46 69.58">
  <defs>
    <style>
      .cls-1 {
        fill: #400000;
      }

      .cls-1, .cls-2 {
        stroke-width: 0px;
      }

      .cls-2 {
        fill: #f74030;
      }
    </style>
  </defs>
  <g>
    <path class="cls-2" d="M37.13,6.29c-.11.01-.2.04-.24.09-.16.24-.16,1.35-.16,1.35v11.72s0,1.97,0,1.97c0,.07.03.13.06.15.02.02.07.02.14,0l.56-.44.22-.17c12.46-10.51,35.25,9.64.75,35.76l-.12.07h.01s-1.3.93-1.46,1.16c-.16.23-.16,3.47-.16,3.47v.1s0,1.44.16,1.68c.03.04.09.06.19.08,13.69-1.19,26.28-14.5,26.28-28.5,0-15.05-12.56-27.29-26.23-28.5Z"/>
    <path class="cls-2" d="M31.19,56.79h.01s-.11-.07-.11-.07C-3.41,30.6,19.38,10.45,31.83,20.96l.22.17.57.44c.07.02.11.02.15,0,.02-.02.04-.07.06-.15V7.73s0-1.11-.16-1.35c-.04-.05-.12-.08-.24-.09-13.68,1.21-26.23,13.45-26.23,28.5,0,14,12.58,27.31,26.28,28.5.08-.02.15-.04.19-.08.16-.23.16-1.68.16-1.68v-.1s0-3.24-.16-3.48c-.16-.24-1.47-1.17-1.47-1.17Z"/>
    <path class="cls-2" d="M34.78,28.54h0c-9.72-16.06-32.06,2.3,0,25.25h0c32.07-22.95,9.72-41.31,0-25.25Z"/>
    <path class="cls-2" d="M34.78,0C15.57,0,0,15.58,0,34.79s15.57,34.79,34.78,34.79,34.79-15.58,34.79-34.79S54,0,34.78,0ZM34.8,65.89c-15.88,0-31.09-15.21-31.09-31.09C3.7,17.84,18.92,3.7,34.8,3.7s31.1,14.15,31.1,31.1c0,15.88-15.21,31.09-31.1,31.09Z"/>
  </g>
  <path class="cls-1" d="M96.3,50.68h-10.5s0,4.74,0,4.74h9.31v2.78h-9.31s0,7.07,0,7.07h-3.24v-17.37h13.74v2.78Z"/>
  <path class="cls-1" d="M109.41,65.56c-5.67,0-9.62-4.04-9.62-8.96,0-4.91,4.01-9.01,9.68-9.01s9.62,4.04,9.62,8.96c0,4.91-4.01,9.01-9.68,9.01ZM109.41,50.4c-3.67,0-6.22,2.75-6.22,6.15,0,3.4,2.61,6.2,6.28,6.2s6.22-2.75,6.22-6.15c0-3.4-2.61-6.2-6.28-6.2Z"/>
  <path class="cls-1" d="M136.95,65.26l-4.54-6.05h-4.06s0,6.05,0,6.05h-3.24v-17.37h8.23c4.25,0,6.86,2.11,6.86,5.51,0,2.88-1.82,4.61-4.4,5.28l4.98,6.57h-3.82ZM133.07,50.68h-4.72s0,5.83,0,5.83h4.75c2.32,0,3.8-1.14,3.8-2.93,0-1.91-1.42-2.9-3.82-2.9Z"/>
  <path class="cls-1" d="M160.69,50.63h-10.44s0,4.51,0,4.51h9.26v2.73h-9.26s0,4.66,0,4.66h10.57v2.73h-13.82v-17.37h13.69v2.73Z"/>
  <path class="cls-1" d="M180.11,47.9h3.19v17.37h-2.72s-10.18-12.35-10.18-12.35v12.35h-3.19v-17.37h3.01s9.89,12.01,9.89,12.01v-12.01Z"/>
  <path class="cls-1" d="M193.86,47.9v17.37h-3.24v-17.37h3.24Z"/>
  <path class="cls-1" d="M214.08,47.9h3.19v17.37h-2.72s-10.18-12.35-10.18-12.35v12.35h-3.19v-17.37h3.01s9.89,12.01,9.89,12.01v-12.01Z"/>
  <path class="cls-1" d="M233.01,65.56c-5.77,0-9.57-3.87-9.57-8.96s3.96-9.01,9.52-9.01c3.22,0,5.19.84,7.09,2.36l-2.06,2.31c-1.42-1.14-2.82-1.86-5.17-1.86-3.4,0-5.99,2.78-5.99,6.15,0,3.6,2.5,6.23,6.28,6.23,1.74,0,3.32-.52,4.46-1.31v-3.25s-4.72,0-4.72,0v-2.65h7.86v7.29c-1.82,1.46-4.43,2.7-7.7,2.7Z"/>
  <path class="cls-1" d="M261.01,50.63h-10.44s0,4.51,0,4.51h9.26v2.73h-9.26s0,4.66,0,4.66h10.57v2.73h-13.82v-17.37h13.69v2.73Z"/>
  <path class="cls-1" d="M280.27,47.9h3.19v17.37h-2.72s-10.18-12.35-10.18-12.35v12.35h-3.19v-17.37h3.01s9.89,12.01,9.89,12.01v-12.01Z"/>
  <polygon class="cls-1" points="106.63 17.98 90.51 17.98 90.51 4.2 82.57 4.2 82.57 39.01 90.51 39.01 90.51 25.04 106.63 25.04 106.63 39.01 114.57 39.01 114.57 4.2 106.63 4.2 106.63 17.98"/>
  <polygon class="cls-1" points="159.88 24.89 175.85 24.89 175.85 18.08 159.88 18.08 159.88 11.01 179.76 11.01 179.76 4.2 151.99 4.2 151.99 39.01 179.91 39.01 179.91 32.2 159.88 32.2 159.88 24.89"/>
  <polygon class="cls-1" points="220.76 11.26 232.04 11.26 232.04 39.01 240.27 39.01 240.27 11.26 251.25 11.26 251.25 4.2 220.76 4.2 220.76 11.26"/>
  <polygon class="cls-1" points="263.43 32.2 263.43 24.89 279.41 24.89 279.41 18.08 263.43 18.08 263.43 11.01 283.32 11.01 283.32 4.2 255.55 4.2 255.55 39.01 283.46 39.01 283.46 32.2 263.43 32.2"/>
  <path class="cls-1" d="M125.39,4.2v7.06h10.22v15.37c0,4.03-2.15,6.21-5.14,6.21-2.53,0-4.68-1.29-6.75-3.48l-5,4.93c2.47,2.83,6.33,5.22,11.95,5.22,7.63,0,13.08-4.08,13.08-12.53V4.2h-18.37Z"/>
  <path class="cls-1" d="M218.81,16.13v-.1c0-7.11-5.21-11.89-13.81-11.89h-17.56v34.81h7.94v-10.88s9.29,0,9.52-.01l7.09,10.95h9.06l-8.6-12.61c3.85-1.85,6.37-5.25,6.37-10.26ZM195.38,11.06h8.95c3.97,0,6.44,1.69,6.44,5.12v.1c0,2.98-2.32,4.98-6.29,4.98h-9.1v-10.2Z"/>
</svg>