<?xml version="1.0" encoding="utf-8"?>
<!-- Generator: Adobe Illustrator 28.2.0, SVG Export Plug-In . SVG Version: 6.00 Build 0)  -->
<svg version="1.1" id="Layer_1" xmlns="http://www.w3.org/2000/svg" xmlns:xlink="http://www.w3.org/1999/xlink" x="0px" y="0px"
	 viewBox="0 0 283.46 283.46" style="enable-background:new 0 0 283.46 283.46;" xml:space="preserve">
<style type="text/css">
	.st0{fill:#F74030;}
</style>
<g>
	<g>
		<path class="st0" d="M151.08,25.85c-0.46,0.04-0.83,0.15-0.96,0.37c-0.64,0.97-0.64,5.51-0.64,5.51l-0.02,47.75v8.02
			c0.03,0.3,0.12,0.52,0.24,0.61c0.09,0.07,0.3,0.07,0.56,0l2.28-1.77l0.9-0.71c50.77-42.84,143.61,39.27,3.06,145.72l-0.48,0.29
			l0.06-0.02c0,0-5.3,3.79-5.96,4.76c-0.64,0.95-0.64,14.15-0.64,14.15v0.41c0,0,0,5.89,0.64,6.83c0.11,0.16,0.37,0.25,0.75,0.34
			c55.79-4.85,107.1-59.08,107.1-116.13C257.97,80.65,206.79,30.78,151.08,25.85z"/>
		<path class="st0" d="M127.07,231.4l0.05,0.02l-0.46-0.29C-13.89,124.68,78.95,42.57,129.7,85.4l0.89,0.71l2.3,1.77
			c0.28,0.07,0.46,0.07,0.6,0c0.07-0.09,0.18-0.3,0.24-0.61v-8.02l-0.02-47.75c0,0,0-4.53-0.65-5.51c-0.17-0.21-0.49-0.32-0.98-0.35
			C76.36,30.57,25.21,80.44,25.21,141.77c0,57.05,51.27,111.28,107.08,116.13c0.35-0.08,0.62-0.18,0.77-0.34
			c0.65-0.95,0.65-6.83,0.65-6.83v-0.39c0,0,0-13.21-0.65-14.17C132.4,235.19,127.07,231.4,127.07,231.4z"/>
		<path class="st0" d="M141.71,116.27L141.71,116.27c-39.61-65.42-130.64,9.38,0,102.9l0,0
			C272.36,125.65,181.33,50.85,141.71,116.27z"/>
		<path class="st0" d="M141.5,0.22C63.22,0.22-0.21,63.69-0.21,141.98c0,78.29,63.43,141.75,141.71,141.75
			c78.3,0,141.75-63.46,141.75-141.75C283.25,63.69,219.8,0.22,141.5,0.22z M141.57,268.67c-64.69,0-126.69-61.99-126.69-126.68
			c0-69.07,62-126.71,126.69-126.71c64.73,0,126.71,57.64,126.71,126.71C268.28,206.68,206.3,268.67,141.57,268.67z"/>
	</g>
</g>
</svg>
